<svg width="493" height="493" viewBox="0 0 493 493" fill="none" xmlns="http://www.w3.org/2000/svg">
<circle cx="246.5" cy="246.5" r="246.5" fill="white" fill-opacity="0.9"/>
<rect x="36" y="17" width="361" height="378" fill="#45434C"/>
<rect x="20" y="44" width="351" height="368" fill="#E7E6F7" stroke="#33385C" stroke-width="10"/>
<rect x="17.5" y="39.5" width="356" height="51" stroke="#33385C" stroke-width="5"/>
<rect x="237" y="315.662" width="89" height="38.3385" rx="10" fill="#D33E43"/>
<path d="M251.202 341.114C250.378 341.114 249.587 341.006 248.827 340.791C248.067 340.563 247.471 340.278 247.041 339.936L247.801 338.492C248.244 338.809 248.782 339.062 249.416 339.252C250.049 339.442 250.689 339.537 251.335 339.537C252.931 339.537 253.729 339.081 253.729 338.169C253.729 337.865 253.621 337.624 253.406 337.447C253.19 337.27 252.918 337.143 252.589 337.067C252.272 336.978 251.816 336.883 251.221 336.782C250.41 336.655 249.745 336.51 249.226 336.345C248.719 336.18 248.282 335.902 247.915 335.509C247.547 335.116 247.364 334.565 247.364 333.856C247.364 332.944 247.744 332.216 248.504 331.671C249.264 331.114 250.283 330.835 251.563 330.835C252.234 330.835 252.905 330.917 253.577 331.082C254.248 331.247 254.799 331.468 255.23 331.747L254.451 333.191C253.627 332.659 252.658 332.393 251.544 332.393C250.771 332.393 250.182 332.52 249.777 332.773C249.371 333.026 249.169 333.362 249.169 333.78C249.169 334.109 249.283 334.369 249.511 334.559C249.739 334.749 250.017 334.888 250.347 334.977C250.689 335.066 251.164 335.167 251.772 335.281C252.582 335.42 253.235 335.572 253.729 335.737C254.235 335.889 254.666 336.155 255.021 336.535C255.375 336.915 255.553 337.447 255.553 338.131C255.553 339.043 255.16 339.771 254.375 340.316C253.602 340.848 252.544 341.114 251.202 341.114ZM267.218 330.93V341H265.489V339.48C265.122 339.999 264.634 340.405 264.026 340.696C263.431 340.975 262.778 341.114 262.069 341.114C260.726 341.114 259.669 340.747 258.896 340.012C258.123 339.265 257.737 338.169 257.737 336.725V330.93H259.561V336.516C259.561 337.491 259.795 338.232 260.264 338.739C260.733 339.233 261.404 339.48 262.278 339.48C263.241 339.48 264.001 339.189 264.558 338.606C265.115 338.023 265.394 337.2 265.394 336.136V330.93H267.218ZM276.03 330.835C277.005 330.835 277.879 331.05 278.652 331.481C279.424 331.912 280.026 332.513 280.457 333.286C280.9 334.059 281.122 334.952 281.122 335.965C281.122 336.978 280.9 337.878 280.457 338.663C280.026 339.436 279.424 340.037 278.652 340.468C277.879 340.899 277.005 341.114 276.03 341.114C275.282 341.114 274.598 340.968 273.978 340.677C273.357 340.386 272.844 339.961 272.439 339.404V341H270.691V326.902H272.515V332.45C272.92 331.918 273.427 331.519 274.035 331.253C274.643 330.974 275.308 330.835 276.03 330.835ZM275.878 339.518C276.524 339.518 277.1 339.372 277.607 339.081C278.126 338.777 278.531 338.359 278.823 337.827C279.127 337.282 279.279 336.662 279.279 335.965C279.279 335.268 279.127 334.654 278.823 334.122C278.531 333.577 278.126 333.159 277.607 332.868C277.1 332.577 276.524 332.431 275.878 332.431C275.244 332.431 274.668 332.577 274.149 332.868C273.629 333.159 273.224 333.577 272.933 334.122C272.641 334.654 272.496 335.268 272.496 335.965C272.496 336.662 272.641 337.282 272.933 337.827C273.224 338.359 273.629 338.777 274.149 339.081C274.668 339.372 275.244 339.518 275.878 339.518ZM296.239 330.835C297.505 330.835 298.506 331.202 299.241 331.937C299.988 332.672 300.362 333.761 300.362 335.205V341H298.538V335.414C298.538 334.439 298.31 333.704 297.854 333.21C297.41 332.716 296.771 332.469 295.935 332.469C295.01 332.469 294.275 332.76 293.731 333.343C293.186 333.913 292.914 334.736 292.914 335.813V341H291.09V335.414C291.09 334.439 290.862 333.704 290.406 333.21C289.962 332.716 289.323 332.469 288.487 332.469C287.562 332.469 286.827 332.76 286.283 333.343C285.738 333.913 285.466 334.736 285.466 335.813V341H283.642V330.93H285.39V332.431C285.757 331.912 286.238 331.519 286.834 331.253C287.429 330.974 288.107 330.835 288.867 330.835C289.652 330.835 290.349 330.993 290.957 331.31C291.565 331.627 292.033 332.089 292.363 332.697C292.743 332.114 293.268 331.658 293.94 331.329C294.624 331 295.39 330.835 296.239 330.835ZM303.718 330.93H305.542V341H303.718V330.93ZM304.63 328.992C304.275 328.992 303.978 328.878 303.737 328.65C303.509 328.422 303.395 328.143 303.395 327.814C303.395 327.485 303.509 327.206 303.737 326.978C303.978 326.737 304.275 326.617 304.63 326.617C304.985 326.617 305.276 326.731 305.504 326.959C305.745 327.174 305.865 327.447 305.865 327.776C305.865 328.118 305.745 328.409 305.504 328.65C305.276 328.878 304.985 328.992 304.63 328.992ZM314.687 340.411C314.421 340.639 314.091 340.816 313.699 340.943C313.306 341.057 312.901 341.114 312.483 341.114C311.469 341.114 310.684 340.842 310.127 340.297C309.569 339.752 309.291 338.973 309.291 337.96V332.431H307.581V330.93H309.291V328.726H311.115V330.93H314.003V332.431H311.115V337.884C311.115 338.429 311.248 338.847 311.514 339.138C311.792 339.429 312.185 339.575 312.692 339.575C313.249 339.575 313.724 339.417 314.117 339.1L314.687 340.411Z" fill="white"/>
<rect x="67.5" y="256.5" width="256" height="35" rx="7.5" fill="#33385C" stroke="#33385C" stroke-width="5"/>
<path d="M116.206 273.984L119.735 276.139L118.816 277.909L115.228 275.625L115.257 280H113.478L113.508 275.625L109.919 277.909L109 276.139L112.559 273.984L109 271.861L109.919 270.059L113.508 272.343L113.478 268H115.257L115.228 272.343L118.816 270.059L119.735 271.861L116.206 273.984Z" fill="#E7E6F7"/>
<path d="M128.659 273.984L132.188 276.139L131.269 277.909L127.681 275.625L127.71 280H125.931L125.961 275.625L122.372 277.909L121.453 276.139L125.012 273.984L121.453 271.861L122.372 270.059L125.961 272.343L125.931 268H127.71L127.681 272.343L131.269 270.059L132.188 271.861L128.659 273.984Z" fill="#E7E6F7"/>
<path d="M141.112 273.984L144.641 276.139L143.722 277.909L140.134 275.625L140.163 280H138.384L138.414 275.625L134.825 277.909L133.906 276.139L137.465 273.984L133.906 271.861L134.825 270.059L138.414 272.343L138.384 268H140.163L140.134 272.343L143.722 270.059L144.641 271.861L141.112 273.984Z" fill="#E7E6F7"/>
<path d="M153.565 273.984L157.094 276.139L156.175 277.909L152.586 275.625L152.616 280H150.837L150.866 275.625L147.278 277.909L146.359 276.139L149.917 273.984L146.359 271.861L147.278 270.059L150.866 272.343L150.837 268H152.616L152.586 272.343L156.175 270.059L157.094 271.861L153.565 273.984Z" fill="#E7E6F7"/>
<path d="M166.018 273.984L169.547 276.139L168.628 277.909L165.039 275.625L165.069 280H163.29L163.319 275.625L159.731 277.909L158.812 276.139L162.37 273.984L158.812 271.861L159.731 270.059L163.319 272.343L163.29 268H165.069L165.039 272.343L168.628 270.059L169.547 271.861L166.018 273.984Z" fill="#E7E6F7"/>
<path d="M178.471 273.984L182 276.139L181.081 277.909L177.492 275.625L177.522 280H175.743L175.772 275.625L172.184 277.909L171.265 276.139L174.823 273.984L171.265 271.861L172.184 270.059L175.772 272.343L175.743 268H177.522L177.492 272.343L181.081 270.059L182 271.861L178.471 273.984Z" fill="#E7E6F7"/>
<path d="M198.471 273.984L202 276.139L201.081 277.909L197.492 275.625L197.522 280H195.743L195.772 275.625L192.184 277.909L191.265 276.139L194.823 273.984L191.265 271.861L192.184 270.059L195.772 272.343L195.743 268H197.522L197.492 272.343L201.081 270.059L202 271.861L198.471 273.984Z" fill="#E7E6F7"/>
<path d="M210.565 273.984L214.094 276.139L213.175 277.909L209.587 275.625L209.616 280H207.837L207.867 275.625L204.278 277.909L203.359 276.139L206.918 273.984L203.359 271.861L204.278 270.059L207.867 272.343L207.837 268H209.616L209.587 272.343L213.175 270.059L214.094 271.861L210.565 273.984Z" fill="#E7E6F7"/>
<path d="M223.018 273.984L226.547 276.139L225.628 277.909L222.039 275.625L222.069 280H220.29L220.319 275.625L216.731 277.909L215.812 276.139L219.37 273.984L215.812 271.861L216.731 270.059L220.319 272.343L220.29 268H222.069L222.039 272.343L225.628 270.059L226.547 271.861L223.018 273.984Z" fill="#E7E6F7"/>
<path d="M235.471 273.984L239 276.139L238.081 277.909L234.492 275.625L234.522 280H232.743L232.772 275.625L229.184 277.909L228.265 276.139L231.823 273.984L228.265 271.861L229.184 270.059L232.772 272.343L232.743 268H234.522L234.492 272.343L238.081 270.059L239 271.861L235.471 273.984Z" fill="#E7E6F7"/>
<path fill-rule="evenodd" clip-rule="evenodd" d="M90.32 270.315L90.4743 272H83.5257L83.68 270.315C83.8417 268.549 85.2797 267.2 87 267.2C88.7203 267.2 90.1583 268.549 90.32 270.315ZM93.9684 276.107L93.5924 272L93.4105 270.014C93.0984 266.605 90.3218 264 87 264C83.6782 264 80.9016 266.605 80.5895 270.014L80.4076 272L80.0316 276.107C79.6439 280.341 82.8745 284 87 284C91.1255 284 94.3561 280.341 93.9684 276.107ZM88.9248 275.378C88.9248 275.934 88.6459 276.431 88.2092 276.757C88.2456 276.859 88.2689 276.968 88.2771 277.082L88.509 280.311C88.5589 281.007 88.0248 281.6 87.348 281.6H86.6213C85.9445 281.6 85.4104 281.007 85.4604 280.311L85.6923 277.082C85.7004 276.968 85.7238 276.859 85.7601 276.757C85.3234 276.431 85.0445 275.934 85.0445 275.378C85.0445 274.396 85.9131 273.6 86.9847 273.6C88.0562 273.6 88.9248 274.396 88.9248 275.378Z" fill="#F9A03F"/>
<rect x="67.5" y="202.5" width="256" height="35" rx="7.5" fill="#33385C" stroke="#33385C" stroke-width="5"/>
<path d="M116.206 219.984L119.735 222.139L118.816 223.909L115.228 221.625L115.257 226H113.478L113.508 221.625L109.919 223.909L109 222.139L112.559 219.984L109 217.861L109.919 216.059L113.508 218.343L113.478 214H115.257L115.228 218.343L118.816 216.059L119.735 217.861L116.206 219.984Z" fill="#E7E6F7"/>
<path d="M128.659 219.984L132.188 222.139L131.269 223.909L127.681 221.625L127.71 226H125.931L125.961 221.625L122.372 223.909L121.453 222.139L125.012 219.984L121.453 217.861L122.372 216.059L125.961 218.343L125.931 214H127.71L127.681 218.343L131.269 216.059L132.188 217.861L128.659 219.984Z" fill="#E7E6F7"/>
<path d="M141.112 219.984L144.641 222.139L143.722 223.909L140.134 221.625L140.163 226H138.384L138.414 221.625L134.825 223.909L133.906 222.139L137.465 219.984L133.906 217.861L134.825 216.059L138.414 218.343L138.384 214H140.163L140.134 218.343L143.722 216.059L144.641 217.861L141.112 219.984Z" fill="#E7E6F7"/>
<path d="M153.565 219.984L157.094 222.139L156.175 223.909L152.586 221.625L152.616 226H150.837L150.866 221.625L147.278 223.909L146.359 222.139L149.917 219.984L146.359 217.861L147.278 216.059L150.866 218.343L150.837 214H152.616L152.586 218.343L156.175 216.059L157.094 217.861L153.565 219.984Z" fill="#E7E6F7"/>
<path d="M166.018 219.984L169.547 222.139L168.628 223.909L165.039 221.625L165.069 226H163.29L163.319 221.625L159.731 223.909L158.812 222.139L162.37 219.984L158.812 217.861L159.731 216.059L163.319 218.343L163.29 214H165.069L165.039 218.343L168.628 216.059L169.547 217.861L166.018 219.984Z" fill="#E7E6F7"/>
<path d="M178.471 219.984L182 222.139L181.081 223.909L177.492 221.625L177.522 226H175.743L175.772 221.625L172.184 223.909L171.265 222.139L174.823 219.984L171.265 217.861L172.184 216.059L175.772 218.343L175.743 214H177.522L177.492 218.343L181.081 216.059L182 217.861L178.471 219.984Z" fill="#E7E6F7"/>
<path fill-rule="evenodd" clip-rule="evenodd" d="M90.32 216.315L90.4743 218H83.5257L83.68 216.315C83.8417 214.549 85.2797 213.2 87 213.2C88.7203 213.2 90.1583 214.549 90.32 216.315ZM93.9684 222.107L93.5924 218L93.4105 216.014C93.0984 212.605 90.3218 210 87 210C83.6782 210 80.9016 212.605 80.5895 216.014L80.4076 218L80.0316 222.107C79.6439 226.341 82.8745 230 87 230C91.1255 230 94.3561 226.341 93.9684 222.107ZM88.9248 221.378C88.9248 221.934 88.6459 222.431 88.2092 222.757C88.2456 222.859 88.2689 222.968 88.2771 223.082L88.509 226.311C88.5589 227.007 88.0248 227.6 87.348 227.6H86.6213C85.9445 227.6 85.4104 227.007 85.4604 226.311L85.6923 223.082C85.7004 222.968 85.7238 222.859 85.7601 222.757C85.3234 222.431 85.0445 221.934 85.0445 221.378C85.0445 220.396 85.9131 219.6 86.9847 219.6C88.0562 219.6 88.9248 220.396 88.9248 221.378Z" fill="#F9A03F"/>
<rect x="67.5" y="147.5" width="256" height="36" rx="7.5" fill="#33385C" stroke="#33385C" stroke-width="5"/>
<path d="M116.213 165.485L119.746 167.461L118.825 169.083L115.234 166.989L115.263 171H113.482L113.512 166.989L109.92 169.083L109 167.461L112.562 165.485L109 163.539L109.92 161.887L113.512 163.981L113.482 160H115.263L115.234 163.981L118.825 161.887L119.746 163.539L116.213 165.485Z" fill="#E7E6F7"/>
<path d="M128.678 165.485L132.21 167.461L131.29 169.083L127.699 166.989L127.728 171H125.947L125.977 166.989L122.385 169.083L121.465 167.461L125.027 165.485L121.465 163.539L122.385 161.887L125.977 163.981L125.947 160H127.728L127.699 163.981L131.29 161.887L132.21 163.539L128.678 165.485Z" fill="#E7E6F7"/>
<path d="M141.143 165.485L144.675 167.461L143.755 169.083L140.163 166.989L140.193 171H138.412L138.442 166.989L134.85 169.083L133.93 167.461L137.492 165.485L133.93 163.539L134.85 161.887L138.442 163.981L138.412 160H140.193L140.163 163.981L143.755 161.887L144.675 163.539L141.143 165.485Z" fill="#E7E6F7"/>
<path d="M153.608 165.485L157.14 167.461L156.22 169.083L152.628 166.989L152.658 171H150.877L150.907 166.989L147.315 169.083L146.395 167.461L149.957 165.485L146.395 163.539L147.315 161.887L150.907 163.981L150.877 160H152.658L152.628 163.981L156.22 161.887L157.14 163.539L153.608 165.485Z" fill="#E7E6F7"/>
<path d="M166.073 165.485L169.605 167.461L168.685 169.083L165.093 166.989L165.123 171H163.342L163.372 166.989L159.78 169.083L158.86 167.461L162.422 165.485L158.86 163.539L159.78 161.887L163.372 163.981L163.342 160H165.123L165.093 163.981L168.685 161.887L169.605 163.539L166.073 165.485Z" fill="#E7E6F7"/>
<path d="M178.538 165.485L182.07 167.461L181.15 169.083L177.558 166.989L177.588 171H175.807L175.837 166.989L172.245 169.083L171.325 167.461L174.887 165.485L171.325 163.539L172.245 161.887L175.837 163.981L175.807 160H177.588L177.558 163.981L181.15 161.887L182.07 163.539L178.538 165.485Z" fill="#E7E6F7"/>
<path d="M191.003 165.485L194.535 167.461L193.615 169.083L190.023 166.989L190.053 171H188.272L188.301 166.989L184.71 169.083L183.79 167.461L187.352 165.485L183.79 163.539L184.71 161.887L188.301 163.981L188.272 160H190.053L190.023 163.981L193.615 161.887L194.535 163.539L191.003 165.485Z" fill="#E7E6F7"/>
<path d="M203.468 165.485L207 167.461L206.08 169.083L202.488 166.989L202.518 171H200.737L200.766 166.989L197.175 169.083L196.254 167.461L199.816 165.485L196.254 163.539L197.175 161.887L200.766 163.981L200.737 160H202.518L202.488 163.981L206.08 161.887L207 163.539L203.468 165.485Z" fill="#E7E6F7"/>
<path fill-rule="evenodd" clip-rule="evenodd" d="M90.32 161.315L90.4743 163H83.5257L83.68 161.315C83.8417 159.549 85.2797 158.2 87 158.2C88.7203 158.2 90.1583 159.549 90.32 161.315ZM93.9684 167.107L93.5924 163L93.4105 161.014C93.0984 157.605 90.3218 155 87 155C83.6782 155 80.9016 157.605 80.5895 161.014L80.4076 163L80.0316 167.107C79.6439 171.341 82.8745 175 87 175C91.1255 175 94.3561 171.341 93.9684 167.107ZM88.9248 166.378C88.9248 166.934 88.6459 167.431 88.2092 167.757C88.2456 167.859 88.2689 167.968 88.2771 168.082L88.509 171.311C88.5589 172.007 88.0248 172.6 87.348 172.6H86.6213C85.9445 172.6 85.4104 172.007 85.4604 171.311L85.6923 168.082C85.7004 167.968 85.7238 167.859 85.7601 167.757C85.3234 167.431 85.0445 166.934 85.0445 166.378C85.0445 165.396 85.9131 164.6 86.9847 164.6C88.0562 164.6 88.9248 165.396 88.9248 166.378Z" fill="#F9A03F"/>
</svg>
