<svg width="514" height="562" viewBox="0 0 514 562" fill="none" xmlns="http://www.w3.org/2000/svg">
<circle cx="267.5" cy="315.5" r="246.5" fill="white" fill-opacity="0.9"/>
<path fill-rule="evenodd" clip-rule="evenodd" d="M59.3553 152C53.8325 152 49.3553 156.477 49.3553 162V425.785H36V429.342V436.818V437.114C36 448.16 44.9543 457.114 56 457.114H480C491.046 457.114 500 448.16 500 437.114V436.818V429.342V425.785H483.202V162C483.202 156.477 478.725 152 473.202 152H59.3553Z" fill="#45434C"/>
<rect x="34.4849" y="187.129" width="409.564" height="263.768" fill="#33385C"/>
<mask id="path-4-outside-1" maskUnits="userSpaceOnUse" x="0" y="443.342" width="484" height="48" fill="black">
<rect fill="white" y="443.342" width="484" height="48"/>
<path fill-rule="evenodd" clip-rule="evenodd" d="M207.611 453.342H10V461.114C10 472.16 18.9543 481.114 30 481.114H454C465.046 481.114 474 472.16 474 461.114V453.342H277.096C275.723 457.225 272.019 460.007 267.665 460.007H217.041C212.688 460.007 208.984 457.225 207.611 453.342Z"/>
</mask>
<path fill-rule="evenodd" clip-rule="evenodd" d="M207.611 453.342H10V461.114C10 472.16 18.9543 481.114 30 481.114H454C465.046 481.114 474 472.16 474 461.114V453.342H277.096C275.723 457.225 272.019 460.007 267.665 460.007H217.041C212.688 460.007 208.984 457.225 207.611 453.342Z" fill="#33385C"/>
<path d="M207.611 453.342L217.038 450.008L214.681 443.342H207.611V453.342ZM10 453.342V443.342H0V453.342H10ZM474 453.342H484V443.342H474V453.342ZM277.096 453.342V443.342H270.025L267.668 450.008L277.096 453.342ZM207.611 443.342H10V463.342H207.611V443.342ZM0 453.342V461.114H20V453.342H0ZM0 461.114C0 477.683 13.4315 491.114 30 491.114V471.114C24.4772 471.114 20 466.637 20 461.114H0ZM30 491.114H454V471.114H30V491.114ZM454 491.114C470.569 491.114 484 477.683 484 461.114H464C464 466.637 459.523 471.114 454 471.114V491.114ZM484 461.114V453.342H464V461.114H484ZM474 443.342H277.096V463.342H474V443.342ZM267.668 450.008C267.671 450 267.673 449.998 267.67 450.001C267.669 450.003 267.667 450.005 267.665 450.008C267.662 450.01 267.66 450.012 267.659 450.013C267.656 450.015 267.659 450.012 267.668 450.009C267.672 450.008 267.676 450.007 267.677 450.007C267.678 450.007 267.678 450.007 267.676 450.007C267.674 450.007 267.671 450.007 267.665 450.007V470.007C276.388 470.007 283.782 464.429 286.524 456.675L267.668 450.008ZM267.665 450.007H217.041V470.007H267.665V450.007ZM217.041 450.007C217.035 450.007 217.032 450.007 217.03 450.007C217.028 450.007 217.028 450.007 217.029 450.007C217.031 450.007 217.034 450.008 217.039 450.009C217.047 450.012 217.05 450.015 217.047 450.013C217.046 450.012 217.044 450.01 217.042 450.008C217.039 450.005 217.037 450.003 217.036 450.001C217.033 449.998 217.036 450 217.038 450.008L198.183 456.675C200.924 464.429 208.318 470.007 217.041 470.007V450.007Z" fill="#33385C" mask="url(#path-4-outside-1)"/>
<mask id="path-6-outside-2" maskUnits="userSpaceOnUse" x="13.3553" y="166" width="454" height="312" fill="black">
<rect fill="white" x="13.3553" y="166" width="454" height="312"/>
<path fill-rule="evenodd" clip-rule="evenodd" d="M33.3553 176C27.8325 176 23.3553 180.477 23.3553 186V457.513C23.3553 463.049 27.8535 467.532 33.3897 467.513L447.236 466.09C452.745 466.071 457.202 461.6 457.202 456.09V186C457.202 180.477 452.725 176 447.202 176H33.3553ZM53.3884 193.807C47.8655 193.807 43.3884 198.284 43.3884 203.807V415.3C43.3884 420.823 47.8655 425.3 53.3884 425.3H427.371C432.894 425.3 437.371 420.823 437.371 415.3V203.807C437.371 198.284 432.894 193.807 427.371 193.807H53.3884Z"/>
</mask>
<path fill-rule="evenodd" clip-rule="evenodd" d="M33.3553 176C27.8325 176 23.3553 180.477 23.3553 186V457.513C23.3553 463.049 27.8535 467.532 33.3897 467.513L447.236 466.09C452.745 466.071 457.202 461.6 457.202 456.09V186C457.202 180.477 452.725 176 447.202 176H33.3553ZM53.3884 193.807C47.8655 193.807 43.3884 198.284 43.3884 203.807V415.3C43.3884 420.823 47.8655 425.3 53.3884 425.3H427.371C432.894 425.3 437.371 420.823 437.371 415.3V203.807C437.371 198.284 432.894 193.807 427.371 193.807H53.3884Z" fill="#E7E6F7"/>
<path d="M33.3897 467.513L33.4241 477.513H33.4241L33.3897 467.513ZM447.236 466.09L447.27 476.09H447.27L447.236 466.09ZM33.3553 186V186V166C22.3096 166 13.3553 174.954 13.3553 186H33.3553ZM33.3553 457.513V186H13.3553V457.513H33.3553ZM33.3554 457.513H33.3553H13.3553C13.3553 468.585 22.3516 477.551 33.4241 477.513L33.3554 457.513ZM447.202 456.09L33.3553 457.513L33.4241 477.513L447.27 476.09L447.202 456.09ZM447.202 456.09L447.202 456.09L447.27 476.09C458.289 476.052 467.202 467.109 467.202 456.09H447.202ZM447.202 186V456.09H467.202V186H447.202ZM447.202 186V186H467.202C467.202 174.954 458.247 166 447.202 166V186ZM33.3553 186H447.202V166H33.3553V186ZM53.3884 203.807V203.807V183.807C42.3427 183.807 33.3884 192.761 33.3884 203.807H53.3884ZM53.3884 415.3V203.807H33.3884V415.3H53.3884ZM53.3884 415.3H53.3884H33.3884C33.3884 426.346 42.3427 435.3 53.3884 435.3V415.3ZM427.371 415.3H53.3884V435.3H427.371V415.3ZM427.371 415.3V435.3C438.417 435.3 447.371 426.346 447.371 415.3H427.371ZM427.371 203.807V415.3H447.371V203.807H427.371ZM427.371 203.807H427.371H447.371C447.371 192.761 438.417 183.807 427.371 183.807V203.807ZM53.3884 203.807H427.371V183.807H53.3884V203.807Z" fill="#33385C" mask="url(#path-6-outside-2)"/>
<mask id="path-8-outside-3" maskUnits="userSpaceOnUse" x="5" y="444.785" width="474" height="42" fill="black">
<rect fill="white" x="5" y="444.785" width="474" height="42"/>
<path fill-rule="evenodd" clip-rule="evenodd" d="M207.37 449.785H10V460.818C10 471.863 18.9543 480.818 30 480.818H454C465.046 480.818 474 471.863 474 460.818V449.785H277.337C276.208 454.071 272.306 457.232 267.665 457.232H217.041C212.4 457.232 208.498 454.071 207.37 449.785Z"/>
</mask>
<path fill-rule="evenodd" clip-rule="evenodd" d="M207.37 449.785H10V460.818C10 471.863 18.9543 480.818 30 480.818H454C465.046 480.818 474 471.863 474 460.818V449.785H277.337C276.208 454.071 272.306 457.232 267.665 457.232H217.041C212.4 457.232 208.498 454.071 207.37 449.785Z" fill="#E7E6F7"/>
<path d="M207.37 449.785L212.205 448.512L211.224 444.785H207.37V449.785ZM10 449.785V444.785H5V449.785H10ZM474 449.785H479V444.785H474V449.785ZM277.337 449.785V444.785H273.482L272.501 448.512L277.337 449.785ZM207.37 444.785H10V454.785H207.37V444.785ZM5 449.785V460.818H15V449.785H5ZM5 460.818C5 474.625 16.1929 485.818 30 485.818V475.818C21.7157 475.818 15 469.102 15 460.818H5ZM30 485.818H454V475.818H30V485.818ZM454 485.818C467.807 485.818 479 474.625 479 460.818H469C469 469.102 462.284 475.818 454 475.818V485.818ZM479 460.818V449.785H469V460.818H479ZM474 444.785H277.337V454.785H474V444.785ZM272.501 448.512C271.937 450.657 269.979 452.232 267.665 452.232V462.232C274.633 462.232 280.48 457.486 282.172 451.057L272.501 448.512ZM267.665 452.232H217.041V462.232H267.665V452.232ZM217.041 452.232C214.728 452.232 212.769 450.657 212.205 448.512L202.534 451.057C204.226 457.486 210.073 462.232 217.041 462.232V452.232Z" fill="#33385C" mask="url(#path-8-outside-3)"/>
<ellipse cx="390.465" cy="216.908" rx="6.94913" ry="6.5148" transform="rotate(-90 390.465 216.908)" fill="#D33E43"/>
<ellipse cx="413.049" cy="216.908" rx="6.94913" ry="6.5148" transform="rotate(-90 413.049 216.908)" fill="#F9A03F"/>
<path d="M335.321 243H148.749C140.603 243 134 249.401 134 257.297V363.813C134 371.709 140.603 378.11 148.749 378.11H335.321C343.467 378.11 350.07 371.709 350.07 363.813V257.297C350.07 249.401 343.467 243 335.321 243Z" fill="white"/>
<path fill-rule="evenodd" clip-rule="evenodd" d="M336.975 239H146.09C137.756 239 131 245.733 131 254.038V366.075C131 374.38 137.756 381.113 146.09 381.113H336.975C345.309 381.113 352.065 374.38 352.065 366.075V254.038C352.065 245.733 345.309 239 336.975 239ZM138.545 266.689V366.075C138.545 370.228 141.923 373.594 146.09 373.594H336.975C341.142 373.594 344.52 370.228 344.52 366.075V266.801C344.331 266.923 344.139 267.042 343.941 267.158L246.572 324.547C241.715 327.41 235.661 327.332 230.879 324.347L138.965 266.96C138.823 266.871 138.683 266.781 138.545 266.689ZM142.97 260.588C136.528 256.565 139.424 246.646 147.026 246.697L238.636 247.308L336.212 246.695C343.915 246.646 346.731 256.778 340.101 260.686L242.731 318.075C240.303 319.506 237.276 319.468 234.885 317.975L142.97 260.588Z" fill="#33385C"/>
<path fill-rule="evenodd" clip-rule="evenodd" d="M217.517 184.016C191.319 139.678 206.024 82.4982 250.362 56.3004C294.699 30.1026 351.88 44.8079 378.077 89.1455C404.275 133.483 389.57 190.663 345.232 216.861C325.444 228.554 303.097 232.098 282.088 228.497L251.307 272.359L247.919 215.39C235.816 207.744 225.299 197.188 217.517 184.016Z" fill="#45434C"/>
<path fill-rule="evenodd" clip-rule="evenodd" d="M200.992 181.992C174.794 137.654 189.499 80.474 233.837 54.2762C278.174 28.0784 335.355 42.7837 361.552 87.1213C387.75 131.459 373.045 188.639 328.707 214.837C308.919 226.529 286.572 230.074 265.563 226.473L234.782 270.335L231.394 213.366C219.291 205.72 208.774 195.163 200.992 181.992Z" fill="#F9A03F"/>
<path d="M282.884 85.3161C293.756 85.3161 303.407 87.5554 311.837 92.0339C320.346 96.4338 326.964 102.523 331.691 110.302C336.418 118.08 338.782 126.88 338.782 136.701C338.782 143.615 337.758 149.587 335.709 154.615C333.74 159.565 330.943 163.337 327.319 165.929C323.695 168.522 319.44 169.819 314.555 169.819C310.537 169.819 307.15 168.954 304.392 167.226C301.635 165.497 299.626 162.944 298.365 159.565C294.111 166.401 287.375 169.819 278.157 169.819C273.114 169.819 268.505 168.561 264.33 166.047C260.154 163.533 256.845 160.037 254.403 155.558C252.039 151.001 250.857 145.815 250.857 140.001C250.857 134.265 252.039 129.158 254.403 124.68C256.845 120.123 260.115 116.587 264.212 114.073C268.387 111.559 273.036 110.302 278.157 110.302C285.956 110.302 292.023 112.894 296.356 118.08L296.356 111.127L312.428 111.127L312.428 149.312C312.428 154.34 314.319 156.854 318.101 156.854C320.858 156.854 322.986 155.204 324.482 151.905C326.058 148.605 326.846 143.615 326.846 136.937C326.846 129.001 324.995 122.009 321.292 115.959C317.668 109.83 312.507 105.077 305.81 101.698C299.192 98.241 291.55 96.5124 282.884 96.5124C274.217 96.5124 266.536 98.3588 259.839 102.052C253.221 105.666 248.061 110.694 244.358 117.137C240.734 123.58 238.921 130.887 238.921 139.058C238.921 147.387 240.734 154.812 244.358 161.333C247.982 167.776 253.063 172.804 259.603 176.419C266.221 180.111 273.823 181.958 282.411 181.958C290.92 181.958 298.68 180.229 305.692 176.772L309.474 187.615C305.928 189.422 301.713 190.797 296.829 191.74C292.023 192.761 287.217 193.272 282.411 193.272C271.224 193.272 261.336 190.915 252.748 186.201C244.161 181.565 237.503 175.122 232.776 166.872C228.049 158.622 225.686 149.351 225.686 139.058C225.686 128.844 228.049 119.651 232.776 111.48C237.582 103.309 244.318 96.9053 252.985 92.2696C261.651 87.634 271.617 85.3161 282.884 85.3161ZM281.82 156.265C286.153 156.265 289.699 154.851 292.456 152.022C295.214 149.115 296.592 145.108 296.592 140.001C296.592 134.973 295.214 131.044 292.456 128.216C289.699 125.387 286.153 123.973 281.82 123.973C277.408 123.973 273.863 125.426 271.184 128.333C268.505 131.162 267.166 135.051 267.166 140.001C267.166 145.03 268.505 148.997 271.184 151.905C273.863 154.812 277.408 156.265 281.82 156.265Z" fill="white"/>
</svg>
