<svg width="554" height="505" viewBox="0 0 554 505" fill="none" xmlns="http://www.w3.org/2000/svg">
<circle cx="253.5" cy="258.5" r="246.5" fill="white" fill-opacity="0.9"/>
<path d="M146.659 50.4171L333 6.3213L333 347.222L162.655 453.215L146.659 50.4171Z" fill="#E7E6F7" stroke="#33385C" stroke-width="10"/>
<path d="M175.5 6L6.5 87H162L332.5 6H175.5Z" fill="#E7E6F7" stroke="#33385C" stroke-width="10"/>
<rect x="5" y="87" width="160" height="368" rx="5" fill="#E7E6F7" stroke="#33385C" stroke-width="10"/>
<path fill-rule="evenodd" clip-rule="evenodd" d="M405.915 86.367C399.648 82.4993 391.737 82.4006 385.376 86.1072L389.72 93.5628L385.376 86.1072L240.655 170.435C236.733 172.72 234.065 175.789 232.505 179.182C230.361 182.583 229.121 186.607 229.121 190.92V355.547C229.121 367.752 239.048 377.645 251.294 377.645H531.783C544.029 377.645 553.956 367.752 553.956 355.547V190.92C553.956 185.748 552.173 180.99 549.185 177.225C547.653 174.744 545.456 172.499 542.528 170.692L405.915 86.367Z" fill="#45434C"/>
<path d="M521.076 186.177H245.764C233.744 186.177 224 195.597 224 207.217V363.958C224 375.578 233.744 384.997 245.764 384.997H521.076C533.096 384.997 542.84 375.578 542.84 363.958V207.217C542.84 195.597 533.096 186.177 521.076 186.177Z" fill="white"/>
<path fill-rule="evenodd" clip-rule="evenodd" d="M521.662 177.177H241.173C228.927 177.177 219 187.071 219 199.275V363.902C219 376.107 228.927 386 241.173 386H521.662C533.908 386 543.835 376.107 543.835 363.902V199.275C543.835 187.071 533.908 177.177 521.662 177.177ZM230.087 217.864V363.902C230.087 370.004 235.05 374.951 241.173 374.951H521.662C527.785 374.951 532.749 370.004 532.749 363.902V218.029C532.471 218.208 532.188 218.382 531.898 218.553L388.823 302.881C381.686 307.087 372.79 306.974 365.764 302.587L230.704 218.262C230.495 218.131 230.289 217.999 230.087 217.864ZM236.589 208.899C227.123 202.988 231.379 188.412 242.549 188.487L377.162 189.386L520.541 188.484C531.859 188.413 535.997 203.301 526.255 209.043L383.179 293.371C379.611 295.474 375.163 295.417 371.65 293.224L236.589 208.899Z" fill="#33385C"/>
<path d="M521.813 211.801C537.985 211.908 544.533 190.797 530.501 182.135L393.888 97.81C388.762 94.6463 382.286 94.5653 377.082 97.5976L232.361 181.925C217.923 190.338 224.304 211.906 240.689 211.804L385.685 210.903L521.813 211.801Z" fill="white" stroke="#33385C" stroke-width="10"/>
<path d="M385.393 299.046L382.881 294.723L385.393 299.046L530.085 214.947C532.739 213.405 535.07 211.67 536.51 209.646C537.261 208.59 537.961 207.189 538.08 205.504C538.207 203.699 537.633 202.054 536.63 200.754C534.889 198.497 532.108 197.553 530.019 197.079C527.669 196.545 524.849 196.32 521.764 196.339L376.797 197.238L240.695 196.342C237.666 196.322 234.888 196.524 232.566 197.019C230.505 197.459 227.754 198.334 225.974 200.481C224.943 201.723 224.296 203.335 224.359 205.152C224.418 206.852 225.081 208.276 225.801 209.346C227.175 211.389 229.444 213.156 232.014 214.738L368.6 298.835C373.722 301.988 380.193 302.069 385.393 299.046Z" fill="#C9C9C9" stroke="#33385C" stroke-width="10"/>
<rect x="311.393" y="54" width="161.462" height="166.812" fill="#45434C"/>
<rect x="307" y="68.7087" width="151.462" height="156.812" fill="#E7E6F7" stroke="#33385C" stroke-width="10"/>
<rect x="327.25" y="110.469" width="111.098" height="16.6085" rx="8.30427" fill="#33385C"/>
<rect x="327.25" y="140.364" width="111.098" height="16.6085" rx="8.30427" fill="#33385C"/>
<rect x="327.25" y="166.938" width="111.098" height="16.6085" rx="8.30427" fill="#33385C"/>
<path fill-rule="evenodd" clip-rule="evenodd" d="M396.729 277.432L397.208 282.658H368.108L368.587 277.432C369.283 269.836 375.446 264.171 382.658 264.171C389.87 264.171 396.032 269.836 396.729 277.432ZM382.658 260.917C382.658 260.917 382.658 260.917 382.658 260.917C382.658 260.917 382.658 260.917 382.658 260.917C382.658 260.917 382.658 260.917 382.658 260.917ZM382.658 351.653C406.184 351.653 424.419 330.851 422.233 307L419.324 275.272C417.55 255.923 401.737 241 382.658 241C363.579 241 347.766 255.923 345.992 275.272L343.083 307C340.896 330.851 359.132 351.653 382.658 351.653ZM418.993 307.297C421.014 329.344 404.169 348.399 382.658 348.399C404.169 348.399 421.014 329.344 418.993 307.297Z" fill="#45434C"/>
<rect x="359.147" y="295.128" width="33.884" height="47.6208" fill="white"/>
<path d="M380.31 311.931L378.83 313.035L379.449 314.774C379.564 315.096 379.639 315.442 379.665 315.807L380.874 332.625C381.036 334.876 379.316 336.655 377.314 336.655H373.525C371.523 336.655 369.803 334.876 369.965 332.625L371.174 315.807C371.2 315.442 371.275 315.096 371.39 314.774L372.009 313.035L370.529 311.931C368.814 310.653 367.803 308.779 367.803 306.755C367.803 303.227 371 299.997 375.419 299.997C379.839 299.997 383.036 303.227 383.036 306.755C383.036 308.778 382.025 310.653 380.31 311.931ZM390.321 280.617L390.876 286.666H360.123L360.678 280.617C361.408 272.651 367.88 266.671 375.5 266.671C383.119 266.671 389.591 272.651 390.321 280.617ZM414.324 310.323L412.363 288.937L411.415 278.595C409.675 259.616 394.171 245.007 375.5 245.007C356.828 245.007 341.324 259.616 339.584 278.595L338.636 288.937L336.675 310.323C334.527 333.756 352.44 354.153 375.5 354.153C398.559 354.153 416.472 333.756 414.324 310.323Z" fill="#F9A03F" stroke="white" stroke-width="5"/>
<path d="M10 90H160C162.761 90 165 92.2386 165 95V453C165 455.761 162.761 458 160 458H10C7.23858 458 5 455.761 5 453V95C5 92.2386 7.23858 90 10 90Z" stroke="#33385C" stroke-width="10"/>
<rect x="22" y="417" width="120" height="11" rx="5" fill="#33385C"/>
<rect x="22" y="386" width="120" height="11" rx="5" fill="#33385C"/>
<rect x="22" y="358" width="120" height="11" rx="5" fill="#33385C"/>
<circle cx="123.5" cy="131.5" r="7.5" fill="#D33E43"/>
<circle cx="123.5" cy="157.5" r="7.5" fill="#F9A03F"/>
</svg>
