<svg width="20" height="20" viewBox="0 0 20 20" fill="none" xmlns="http://www.w3.org/2000/svg">
<path fill-rule="evenodd" clip-rule="evenodd" d="M8.69505 0H11.3049L12.2468 2.31982C12.8061 2.48317 13.34 2.70594 13.8413 2.98084L16.1483 2.0062L17.9938 3.85167L17.0192 6.15874C17.2941 6.66 17.5168 7.19391 17.6802 7.75317L20 8.69505V11.3049L17.6802 12.2468C17.5168 12.8061 17.2941 13.34 17.0192 13.8413L17.9938 16.1483L16.1483 17.9938L13.8413 17.0192C13.34 17.2941 12.8061 17.5168 12.2468 17.6802L11.305 20H8.69506L7.75318 17.6802C7.19391 17.5168 6.65999 17.2941 6.15872 17.0192L3.85166 17.9938L2.00619 16.1483L2.98083 13.8413C2.70593 13.34 2.48317 12.8061 2.31983 12.2468L0 11.3049V8.69506L2.31982 7.75317C2.48317 7.1939 2.70594 6.65999 2.98084 6.15872L2.0062 3.85167L3.85167 2.0062L6.15873 2.98084C6.65999 2.70594 7.1939 2.48317 7.75317 2.31983L8.69505 0ZM10 14C12.2091 14 14 12.2091 14 10C14 7.79086 12.2091 6 10 6C7.79086 6 6 7.79086 6 10C6 12.2091 7.79086 14 10 14Z" fill="#D33E43"/>
</svg>
