<svg width="170" height="121" viewBox="0 0 170 121" fill="none" xmlns="http://www.w3.org/2000/svg">
<path fill-rule="evenodd" clip-rule="evenodd" d="M37.0239 26.2669C39.0129 22.3836 38.0657 2.77744 37.5922 1.4514C37.1186 0.125357 43.0857 -1.01121 44.5064 1.4514C45.9271 3.914 43.8434 27.8771 43.8434 27.8771C44.5064 29.1083 52.9362 31.9498 52.9362 31.9498C52.9362 31.9498 61.3659 18.3108 66.5753 12.912C71.7846 7.51319 75.3839 6.56603 77.657 7.51319C79.9302 8.46034 80.5932 13.7644 80.5932 13.7644C80.5932 13.7644 79.2671 24.4673 74.5314 33.2758C70.0805 41.5545 67.5537 41.8015 65.1429 42.0372C64.9886 42.0523 64.8348 42.0673 64.6809 42.0844C62.1236 42.3685 55.1146 40.5689 55.1146 40.5689C55.1146 40.5689 46.0218 57.3336 44.6011 62.8271C43.1804 68.3206 41.6649 78.7111 47.2531 78.9287C52.8413 79.1463 58.8086 74.0982 64.6809 66.8998C70.5533 59.7015 77.657 36.3067 77.657 36.3067C77.657 36.3067 82.9611 19.8262 85.329 18.3108C87.6969 16.7953 89.2123 18.5949 89.2123 18.5949C89.2123 18.5949 91.4855 19.5421 91.2961 21.6258C91.1066 23.7095 89.2123 27.0246 89.2123 27.0246L78.2253 51.5559C78.2253 51.5559 69.6062 71.825 69.7956 73.2458C69.985 74.6665 76.672 66.3315 79.1725 63.2059C79.74 62.4965 80.3378 61.665 80.9573 60.8035C83.0669 57.8695 85.4272 54.5868 87.6969 54.5868C90.633 54.5868 84.8554 70.6885 84.8554 70.6885L98.7786 52.3136C98.7786 52.3136 105.314 49.3775 107.114 51.5559C108.095 52.7445 108.485 54.3843 108.821 55.7983C109.101 56.9758 109.344 57.9967 109.86 58.4701C110.291 58.8648 110.762 58.9876 111.217 59.1064C111.964 59.3011 112.669 59.4847 113.081 60.838C113.539 62.3435 111.464 66.2012 108.763 71.2233C107.555 73.4682 106.222 75.9457 104.935 78.5498C103.201 82.0573 99.8273 88.221 96.5195 94.2644L96.5193 94.2647C91.8772 102.746 87.365 110.99 87.6969 111.321C87.9056 111.53 89.7886 110.41 91.9092 109.148C95.5617 106.975 99.9192 104.382 97.642 107.438C94.0427 112.269 81.7297 121.456 77.8464 120.982C74.7153 120.601 75.402 119.48 76.4805 117.719C76.7396 117.296 77.0213 116.837 77.2781 116.341C78.6041 113.784 100.768 76.0872 100.768 76.0872C100.768 76.0872 97.642 76.6555 95.1794 74.6665C92.7169 72.6775 92.9062 68.51 92.9062 68.51C92.9062 68.51 80.5932 83.1909 79.9301 77.3185C79.2671 71.4462 79.3619 70.6885 79.3619 70.6885C79.3619 70.6885 68.8484 81.3913 66.5753 80.4442C64.3021 79.497 63.7338 76.0872 63.7338 76.0872C63.7338 76.0872 49.9052 87.169 44.8853 85.2746C39.8654 83.3803 36.4556 73.9088 39.2024 61.9746C41.9491 50.0405 49.1475 37.0645 49.1475 37.0645L41.9491 34.5071L38.0657 53.7344C34.1824 69.173 30.2044 82.0543 25.7527 85.1799C17.9036 90.6909 8.98802 86.5059 6.71484 80.4442C6.4394 79.7096 6.10416 78.8722 5.73204 77.9427L5.73199 77.9426C3.03307 71.2007 -1.60578 59.613 0.558388 47.2937C3.02096 33.2758 10.8823 27.0246 17.986 25.6039C25.0897 24.1831 37.0239 26.2669 37.0239 26.2669ZM92.2432 31.8551C91.959 32.234 89.8753 44.3575 90.0647 44.9258C90.2542 45.4941 91.3908 45.7783 92.0538 45.6836C92.7168 45.5888 97.2631 36.212 97.3578 35.2649C97.4526 34.3177 94.8005 31.5709 94.0428 31.3815C93.2851 31.1921 92.5273 31.4762 92.2432 31.8551ZM117.437 62.3535C118.669 61.6905 119.995 61.2169 121.131 61.7852C121.58 62.0095 120.907 64.5056 120.132 67.3814C118.944 71.7925 117.514 77.0968 119.521 76.4661C121.525 75.8363 124.255 71.9884 126.583 68.7081C128.106 66.5614 129.457 64.6578 130.319 64.0584C131.603 63.1651 131.801 65.7272 132.019 68.5441C132.17 70.5061 132.332 72.5917 132.876 73.7193C134.163 76.3841 137.41 74.9482 140.543 73.5628L140.832 73.4352C144.052 72.0145 145.189 70.1202 146.042 68.2258C146.354 67.531 146.374 67.0656 146.395 66.5678C146.431 65.7084 146.471 64.7525 148.031 62.3535C150.493 58.5649 162.143 51.8401 164.322 53.7344C166.5 55.6287 165.079 62.164 162.238 66.4262C159.396 70.6884 151.061 75.4242 151.061 75.4242C150.804 77.2941 157.964 80.3051 163.219 82.5152L163.219 82.5153C165.684 83.5517 167.729 84.412 168.394 84.8958C170.478 86.4112 167.258 87.4531 167.258 87.4531C166.405 87.6425 160.533 88.4003 153.808 84.8958C149.333 82.5637 148.423 81.2802 147.366 79.7893C146.835 79.0397 146.266 78.2378 145.189 77.2238C145.189 77.2238 138.18 81.5807 134.202 81.1072C130.224 80.6336 127.193 76.845 127.193 76.845C127.193 76.845 123.026 81.5807 118.479 81.1072C113.933 80.6336 113.459 76.6555 113.27 75.0454C113.081 73.4352 116.206 63.0165 117.437 62.3535ZM67.6498 33.7188C65.695 35.9736 63.8024 36.5119 58.9074 36.0867C60.5915 29.0681 72.5381 14.2074 73.8542 14.2074C75.1702 14.2074 72.4441 29.2671 67.6498 33.7188ZM26.6637 30.8773C32.1159 31.0667 36.8163 32.7716 36.8163 32.7716C36.8163 32.7716 35.2183 47.642 31.082 61.281C30.4537 63.3529 29.8987 65.3437 29.3753 67.2209C26.4535 77.701 24.5184 84.6418 16.3233 82.4026C10.7769 80.8871 8.80291 72.3627 8.80291 72.3627C8.80291 72.3627 2.22257 56.4505 7.11082 43.8533C11.9991 31.2562 21.2115 30.6879 26.6637 30.8773ZM105.534 60.2391C104.594 59.8603 98.9848 59.955 97.7314 65.1643C97.7314 65.1643 97.3554 70.279 99.5175 69.9001C101.68 69.5213 105.534 60.2391 105.534 60.2391Z" fill="white"/>
</svg>
