<svg width="534" height="63" viewBox="0 0 534 63" fill="none" xmlns="http://www.w3.org/2000/svg">
<path d="M363.365 7.21601C358.664 7.21601 356.313 9.75801 356.313 14.842V18.614H368.941V25.092H356.477V62.074H348.605V25.092H341.225V18.614H348.605V14.76C348.605 10.4413 349.862 7.02467 352.377 4.51001C354.892 1.99534 358.418 0.738007 362.955 0.738007C364.704 0.738007 366.344 0.956674 367.875 1.39401C369.406 1.83134 370.718 2.46001 371.811 3.28001L369.433 9.266C367.629 7.89934 365.606 7.21601 363.365 7.21601Z" fill="#D33E43"/>
<path d="M394.339 62.566C390.02 62.566 386.139 61.6093 382.695 59.696C379.251 57.7827 376.545 55.1587 374.577 51.824C372.663 48.4347 371.707 44.608 371.707 40.344C371.707 36.08 372.663 32.2807 374.577 28.946C376.545 25.5567 379.251 22.9327 382.695 21.074C386.139 19.1607 390.02 18.204 394.339 18.204C398.657 18.204 402.511 19.1607 405.901 21.074C409.345 22.9327 412.023 25.5567 413.937 28.946C415.905 32.2807 416.889 36.08 416.889 40.344C416.889 44.608 415.905 48.4347 413.937 51.824C412.023 55.1587 409.345 57.7827 405.901 59.696C402.511 61.6093 398.657 62.566 394.339 62.566ZM394.339 55.678C397.127 55.678 399.614 55.0493 401.801 53.792C404.042 52.48 405.791 50.676 407.049 48.38C408.306 46.0293 408.935 43.3507 408.935 40.344C408.935 37.3373 408.306 34.686 407.049 32.39C405.791 30.0393 404.042 28.2353 401.801 26.978C399.614 25.7207 397.127 25.092 394.339 25.092C391.551 25.092 389.036 25.7207 386.795 26.978C384.608 28.2353 382.859 30.0393 381.547 32.39C380.289 34.686 379.661 37.3373 379.661 40.344C379.661 43.3507 380.289 46.0293 381.547 48.38C382.859 50.676 384.608 52.48 386.795 53.792C389.036 55.0493 391.551 55.678 394.339 55.678Z" fill="#D33E43"/>
<path d="M435.319 25.912C436.686 23.3973 438.709 21.484 441.387 20.172C444.066 18.86 447.319 18.204 451.145 18.204V25.83C450.708 25.7753 450.107 25.748 449.341 25.748C445.077 25.748 441.715 27.0327 439.255 29.602C436.85 32.1167 435.647 35.7247 435.647 40.426V62.074H427.775V18.614H435.319V25.912Z" fill="#D33E43"/>
<path d="M515.214 18.204C520.68 18.204 524.999 19.7893 528.17 22.96C531.395 26.1307 533.008 30.832 533.008 37.064V62.074H525.136V37.966C525.136 33.7567 524.152 30.586 522.184 28.454C520.27 26.322 517.51 25.256 513.902 25.256C509.911 25.256 506.74 26.5133 504.39 29.028C502.039 31.488 500.864 35.0413 500.864 39.688V62.074H492.992V37.966C492.992 33.7567 492.008 30.586 490.04 28.454C488.126 26.322 485.366 25.256 481.758 25.256C477.767 25.256 474.596 26.5133 472.246 29.028C469.895 31.488 468.72 35.0413 468.72 39.688V62.074H460.848V18.614H468.392V25.092C469.977 22.8507 472.054 21.156 474.624 20.008C477.193 18.8053 480.118 18.204 483.398 18.204C486.787 18.204 489.794 18.8873 492.418 20.254C495.042 21.6207 497.064 23.616 498.486 26.24C500.126 23.7253 502.394 21.7573 505.292 20.336C508.244 18.9147 511.551 18.204 515.214 18.204Z" fill="#D33E43"/>
<path d="M220.366 18.204C225.833 18.204 230.151 19.7893 233.322 22.96C236.547 26.1307 238.16 30.832 238.16 37.064V62.074H230.288V37.966C230.288 33.7567 229.304 30.586 227.336 28.454C225.423 26.322 222.662 25.256 219.054 25.256C215.063 25.256 211.893 26.5133 209.542 29.028C207.191 31.488 206.016 35.0413 206.016 39.688V62.074H198.144V37.966C198.144 33.7567 197.16 30.586 195.192 28.454C193.279 26.322 190.518 25.256 186.91 25.256C182.919 25.256 179.749 26.5133 177.398 29.028C175.047 31.488 173.872 35.0413 173.872 39.688V62.074H166V18.614H173.544V25.092C175.129 22.8507 177.207 21.156 179.776 20.008C182.345 18.8053 185.27 18.204 188.55 18.204C191.939 18.204 194.946 18.8873 197.57 20.254C200.194 21.6207 202.217 23.616 203.638 26.24C205.278 23.7253 207.547 21.7573 210.444 20.336C213.396 18.9147 216.703 18.204 220.366 18.204Z" fill="#33385C"/>
<path d="M268.471 18.204C274.484 18.204 279.076 19.68 282.247 22.632C285.472 25.584 287.085 29.9847 287.085 35.834V62.074H279.623V56.334C278.311 58.3567 276.425 59.9147 273.965 61.008C271.559 62.0467 268.689 62.566 265.355 62.566C260.489 62.566 256.581 61.3907 253.629 59.04C250.731 56.6893 249.283 53.6007 249.283 49.774C249.283 45.9473 250.677 42.886 253.465 40.59C256.253 38.2393 260.681 37.064 266.749 37.064H279.213V35.506C279.213 32.1167 278.229 29.52 276.261 27.716C274.293 25.912 271.395 25.01 267.569 25.01C264.999 25.01 262.485 25.4473 260.025 26.322C257.565 27.142 255.487 28.2627 253.793 29.684L250.513 23.78C252.754 21.976 255.433 20.6093 258.549 19.68C261.665 18.696 264.972 18.204 268.471 18.204ZM266.667 56.498C269.673 56.498 272.27 55.842 274.457 54.53C276.643 53.1633 278.229 51.25 279.213 48.79V42.722H267.077C260.407 42.722 257.073 44.9633 257.073 49.446C257.073 51.6327 257.92 53.3547 259.615 54.612C261.309 55.8693 263.66 56.498 266.667 56.498Z" fill="#33385C"/>
<path d="M301.652 18.614H309.524V62.074H301.652V18.614ZM305.588 10.25C304.058 10.25 302.773 9.758 301.734 8.774C300.75 7.79 300.258 6.58733 300.258 5.166C300.258 3.74467 300.75 2.542 301.734 1.558C302.773 0.519334 304.058 0 305.588 0C307.119 0 308.376 0.492001 309.36 1.476C310.399 2.40533 310.918 3.58067 310.918 5.002C310.918 6.478 310.399 7.73533 309.36 8.774C308.376 9.758 307.119 10.25 305.588 10.25Z" fill="#33385C"/>
<path d="M324.555 1.23H332.427V62.074H324.555V1.23Z" fill="#33385C"/>
<path d="M148.333 0H63.9928C60.3106 0 57.3256 2.97486 57.3256 6.64452V56.1462C57.3256 59.8158 60.3106 62.7907 63.9928 62.7907H148.333C152.015 62.7907 155 59.8158 155 56.1462V6.64452C155 2.97485 152.015 0 148.333 0Z" fill="white"/>
<path fill-rule="evenodd" clip-rule="evenodd" d="M148.333 0H63.9928C60.3106 0 57.3256 2.97485 57.3256 6.64452V56.1462C57.3256 59.8158 60.3106 62.7907 63.9928 62.7907H148.333C152.015 62.7907 155 59.8158 155 56.1462V6.64452C155 2.97485 152.015 0 148.333 0ZM60.6592 12.2341V56.1462C60.6592 57.981 62.1517 59.4684 63.9928 59.4684H148.333C150.174 59.4684 151.666 57.981 151.666 56.1462V12.2837C151.583 12.3374 151.498 12.3899 151.411 12.4412L108.389 37.7977C106.243 39.0625 103.569 39.0284 101.456 37.7093L60.8447 12.3537C60.7818 12.3144 60.72 12.2746 60.6592 12.2341ZM62.6145 9.53827C59.7679 7.76101 61.0476 3.37826 64.4066 3.40069L104.883 3.67091L147.996 3.39983C151.399 3.37844 152.643 7.8551 149.714 9.58162L106.692 34.9381C105.619 35.5705 104.282 35.5534 103.226 34.8939L62.6145 9.53827Z" fill="#33385C"/>
<path d="M105.638 16.5495C108.438 16.5495 110.88 17.0392 113.005 17.9719H110.518V19.0464C110.508 19.042 110.499 19.0376 110.489 19.0332C108.688 18.1872 106.72 17.7871 104.629 17.7871C102.081 17.7871 99.7136 18.3966 97.5906 19.6539C95.4645 20.882 93.8026 22.6292 92.6173 24.8318L92.6137 24.8385L92.6101 24.8453C91.4507 27.0316 90.8977 29.4588 90.8977 32.0693C90.8977 34.7053 91.4484 37.1574 92.6019 39.3702L92.6136 39.3927L92.6258 39.4149C93.8135 41.5846 95.4706 43.318 97.5762 44.5686C99.7028 45.8317 102.075 46.4439 104.629 46.4439C106.878 46.4439 108.971 46.0105 110.843 45.0675L110.852 45.0629L110.861 45.0582C111.514 44.7225 112.125 44.3362 112.692 43.9007C112.963 44.2131 113.264 44.5053 113.596 44.775L113.63 44.8027L113.665 44.8293C113.812 44.9402 113.961 45.0449 114.114 45.1436L113.135 45.6605C112.07 46.2224 110.866 46.6577 109.507 46.9531C108.112 47.2565 106.762 47.4043 105.454 47.4043C102.248 47.4043 99.5158 46.7172 97.1862 45.4127L97.1779 45.4081C94.8651 44.1247 93.0767 42.3495 91.7758 40.0457C90.5123 37.7545 89.8465 35.0726 89.8465 31.9307C89.8465 28.828 90.5237 26.1644 91.8164 23.8712C93.1127 21.5717 94.911 19.7949 97.2541 18.508C99.6196 17.2254 102.391 16.5495 105.638 16.5495ZM116.668 47.0643L116.35 46.131C117.145 46.3444 117.98 46.4439 118.84 46.4439C122.3 46.4439 125.078 44.8502 126.952 41.9168C128.74 39.1175 129.5 35.4895 129.5 31.2838C129.5 26.9404 128.486 22.9813 126.402 19.4782C124.358 15.9892 121.49 13.2807 117.852 11.3763C114.21 9.43891 110.118 8.5 105.638 8.5C101.057 8.5 96.8797 9.47344 93.1703 11.4813L93.1703 11.4813L93.1617 11.4859C89.4965 13.4884 86.6073 16.2912 84.5402 19.8678L84.5357 19.8757L84.5312 19.8836C82.492 23.4716 81.5 27.5093 81.5 31.9307C81.5 36.3524 82.4921 40.4014 84.5261 44.015C86.5582 47.6253 89.4161 50.4521 93.0585 52.4615C96.7416 54.5074 100.896 55.5 105.454 55.5C107.319 55.5 109.217 55.2949 111.145 54.8929C113.103 54.4845 114.89 53.8757 116.476 53.0402L118.366 52.044L117.676 50.0214L116.668 47.0643ZM119.506 37.1056V23.7086C120.733 25.8356 121.383 28.3502 121.383 31.33C121.383 34.0606 121.014 35.8812 120.48 36.9996L120.476 37.0089L120.471 37.0183C120.222 37.5519 120.004 37.7698 119.9 37.8489C119.829 37.9023 119.767 37.9323 119.619 37.9323C119.613 37.9323 119.607 37.9323 119.601 37.9321C119.598 37.923 119.595 37.9131 119.592 37.9024C119.55 37.7589 119.506 37.5056 119.506 37.1056ZM119.635 38.0193C119.636 38.0209 119.637 38.0217 119.637 38.0216C119.637 38.0216 119.636 38.0209 119.635 38.0193ZM108.023 37.1501L108.011 37.1571L107.999 37.1642C107.262 37.594 106.377 37.8399 105.271 37.8399C103.593 37.8399 102.385 37.3162 101.434 36.343C100.53 35.3882 99.9776 34.0509 99.9776 32.0693C99.9776 30.0794 100.534 28.768 101.425 27.8509L101.434 27.8417L101.443 27.8324C102.351 26.8783 103.546 26.3449 105.271 26.3449C106.377 26.3449 107.262 26.5908 107.999 27.0207L108.033 27.0402L108.067 27.0586C108.803 27.4584 109.393 28.0458 109.849 28.9009L109.866 28.9331L109.884 28.9649C110.337 29.759 110.61 30.7649 110.61 32.0693C110.61 33.372 110.338 34.4047 109.871 35.2429L109.866 35.2521L109.861 35.2612C109.406 36.0955 108.801 36.7079 108.023 37.1501Z" fill="#D33E43" stroke="white" stroke-width="5"/>
<rect x="49" y="46" width="36" height="4" transform="rotate(-180 49 46)" fill="#D33E43"/>
<rect x="49" y="33" width="49" height="3.99999" transform="rotate(-180 49 33)" fill="#D33E43"/>
<rect x="49" y="21" width="38" height="3.99999" transform="rotate(-180 49 21)" fill="#D33E43"/>
</svg>
